<svg id="Layer_1" enable-background="new 0 0 512 512" viewBox="0 0 512 512" xmlns="http://www.w3.org/2000/svg"><g clip-rule="evenodd" fill-rule="evenodd"><path d="m74.75 63.97h267.96c12.55 0 22.82 10.27 22.82 22.82v394.39c0 12.55-10.27 22.82-22.82 22.82h-267.96c-12.55 0-22.82-10.27-22.82-22.82v-394.39c0-12.55 10.27-22.82 22.82-22.82z" fill="#2f5274"/><path d="m80.9 94.97h255.63v378.05h-255.63z" fill="#ebf5fc"/><path d="m145.84 50.71h22.74c0-23.59 17.96-42.7 40.15-42.7 22.16 0 40.15 19.11 40.15 42.7h22.71c9.91 0 18.01 8.62 18.01 19.17v22.76c0 10.54-8.1 19.17-18.01 19.17h-125.75c-9.89 0-18.01-8.62-18.01-19.17v-22.77c0-10.54 8.13-19.16 18.01-19.16z" fill="#ff4646"/><g fill="#70da40"><path d="m118.96 266.6h51.63v51.63h-51.63z"/><path d="m118.96 372.46h51.63v51.6h-51.63z"/><path d="m118.96 160.77h51.63v51.6h-51.63z"/></g><path d="m377.77 94.4c45.45 0 82.3 36.82 82.3 82.27 0 45.47-36.85 82.3-82.3 82.3-12.6 0-24.55-2.83-35.2-7.88-1.81-.85-3.76-.77-5.49.22l-39.21 22.76c-2.28 1.32-5.05.99-6.97-.8-1.92-1.78-2.44-4.53-1.26-6.89l19.26-39.38c.93-1.89.82-4.01-.33-5.77-8.29-12.85-13.1-28.15-13.1-44.57 0-45.44 36.86-82.29 82.3-82.26z" fill="#ffd400"/><path d="m80.9 94.97h17.68v378.05h-17.68z" fill="#d4dde3"/><path d="m145.84 50.71h13.81c-9.91 0-18.01 8.62-18.01 19.17v22.76c0 10.54 8.1 19.17 18.01 19.17h-13.81c-9.89 0-18.01-8.62-18.01-19.17v-22.77c0-10.54 8.13-19.16 18.01-19.16zm22.74 0c0-23.59 17.96-42.7 40.15-42.7 2.36 0 4.64.22 6.89.63-18.89 3.49-33.25 20.98-33.25 42.07z" fill="#e63f3f"/><path d="m377.77 94.37c2 0 4.01.08 5.99.22-42.65 3.08-76.29 38.66-76.29 82.08 0 16.42 4.81 31.72 13.1 44.57 1.15 1.76 1.26 3.87.33 5.77l-19.28 39.38c-.88 1.78-.82 3.79.11 5.44l-3.87 2.25c-2.28 1.32-5.05.99-6.97-.8-1.92-1.78-2.44-4.53-1.26-6.89l19.27-39.39c.93-1.89.82-4.01-.33-5.77-8.29-12.85-13.1-28.15-13.1-44.57 0-45.44 36.86-82.29 82.3-82.29zm5.99 164.38c-1.98.16-3.98.22-5.99.22-11.07 0-21.64-2.17-31.28-6.15l2.58-1.51c1.73-.99 3.68-1.07 5.49-.22 8.96 4.25 18.82 6.91 29.2 7.66z" fill="#e6bf00"/></g><path d="m170.61 258.61h-51.62c-4.42 0-7.99 3.58-7.99 7.99v51.62c0 4.41 3.58 7.99 7.99 7.99h51.62c4.42 0 7.99-3.58 7.99-7.99v-51.62c0-4.41-3.58-7.99-7.99-7.99zm-8 51.62h-35.63v-35.63h35.63zm8 54.22h-51.62c-4.42 0-7.99 3.58-7.99 7.99v51.62c0 4.41 3.58 7.99 7.99 7.99h51.62c4.42 0 7.99-3.58 7.99-7.99v-51.62c0-4.41-3.58-7.99-7.99-7.99zm-8 51.62h-35.63v-35.63h35.63zm8-263.31h-51.62c-4.42 0-7.99 3.58-7.99 7.99v51.62c0 4.41 3.58 7.99 7.99 7.99h51.62c4.42 0 7.99-3.58 7.99-7.99v-51.62c0-4.41-3.58-7.99-7.99-7.99zm-8 51.62h-35.63v-35.63h35.63zm40.88-35.32c0-4.41 3.58-7.99 7.99-7.99h55.81c4.42 0 7.99 3.58 7.99 7.99s-3.58 7.99-7.99 7.99h-55.81c-4.41.01-7.99-3.57-7.99-7.99zm0 35.01c0-4.42 3.58-7.99 7.99-7.99h43.51c4.42 0 7.99 3.58 7.99 7.99s-3.58 7.99-7.99 7.99h-43.51c-4.41 0-7.99-3.58-7.99-7.99zm0 70.84c0-4.41 3.58-7.99 7.99-7.99h49.63c4.42 0 7.99 3.58 7.99 7.99s-3.58 7.99-7.99 7.99h-49.63c-4.41 0-7.99-3.58-7.99-7.99zm0 35.01c0-4.42 3.58-7.99 7.99-7.99h43.51c4.42 0 7.99 3.58 7.99 7.99s-3.58 7.99-7.99 7.99h-43.51c-4.41 0-7.99-3.58-7.99-7.99zm7.99 62.84h87c4.42 0 7.99 3.58 7.99 7.99s-3.58 7.99-7.99 7.99h-87c-4.42 0-7.99-3.58-7.99-7.99s3.58-7.99 7.99-7.99zm51.51 43c0 4.42-3.58 7.99-7.99 7.99h-43.51c-4.42 0-7.99-3.58-7.99-7.99s3.58-7.99 7.99-7.99h43.51c4.41 0 7.99 3.58 7.99 7.99zm114.8-329.39c-1.43 0-2.85.04-4.26.1-.17-16.86-13.92-30.52-30.81-30.52h-48.79c-4.55-7.92-12.86-13.24-22.33-13.24h-15.3c-3.66-24.17-23.59-42.71-47.57-42.71-23.96 0-43.89 18.54-47.54 42.72h-15.34c-9.47 0-17.76 5.32-22.31 13.24h-48.77c-17.01 0-30.84 13.83-30.84 30.84v394.36c0 17.01 13.83 30.84 30.84 30.84h267.96c16.99 0 30.81-13.83 30.81-30.84v-214.29c1.41.06 2.83.1 4.25.1 49.78 0 90.28-40.51 90.28-90.31 0-49.78-40.5-90.29-90.28-90.29zm-20.24.43v1.86c-4.58 1.05-9.02 2.46-13.3 4.18-.93-3.38-4.02-5.87-7.7-5.87h-38.92v-15.02h45.1c8.17 0 14.82 6.66 14.82 14.85zm-70.04 89.86c0 17.02 4.73 33.54 13.7 47.89l-18.75 38.29c-2.74 5.54-1.53 12.09 3.01 16.29 2.65 2.45 6.01 3.72 9.43 3.72 2.38 0 4.77-.61 6.96-1.87l26.69-15.47v199.49h-239.64v-362.04h32.91c3.9 9.87 13.2 16.84 24.04 16.84h125.74c10.85 0 20.17-6.97 24.07-16.84h30.03c-23.09 16.37-38.19 43.3-38.19 73.7zm-141.65-117.95h22.73c4.42 0 7.99-3.58 7.99-7.99 0-19.15 14.42-34.72 32.14-34.72 17.74 0 32.17 15.58 32.17 34.72 0 4.41 3.58 7.99 7.99 7.99h22.71c5.53 0 10.03 5.01 10.03 11.17v22.76c0 6.16-4.5 11.17-10.03 11.17h-125.73c-5.52 0-10.01-5.01-10.01-11.17v-22.76c0-6.16 4.49-11.17 10.01-11.17zm211.69 422.45c0 8.19-6.65 14.85-14.83 14.85h-267.95c-8.19 0-14.85-6.66-14.85-14.85v-394.36c0-8.19 6.66-14.85 14.85-14.85h45.1v15.02h-38.95c-4.42 0-7.99 3.58-7.99 7.99v378.03c0 4.41 3.58 7.99 7.99 7.99h255.63c4.42 0 7.99-3.58 7.99-7.99v-212.35c4.24 1.69 8.58 3.04 13.01 4.05zm20.24-230.18c-11.14 0-21.83-2.4-31.81-7.15-4.17-1.95-8.85-1.76-12.87.55l-.22.13c-.23.12-.46.25-.68.4l-32.34 18.75 16.23-33.16c2.15-4.43 1.84-9.53-.81-13.6-7.71-11.97-11.79-25.88-11.79-40.23 0-40.97 33.33-74.3 74.29-74.3s74.3 33.33 74.3 74.3-33.33 74.31-74.3 74.31zm32.94-98.7c0 12.9-7.57 24.67-19.29 29.98-3.59 1.64-5.66 4.87-5.66 8.85v4.85c0 4.42-3.58 7.99-7.99 7.99s-7.99-3.58-7.99-7.99v-4.85c0-10.19 5.75-19.15 15.01-23.4 6.04-2.74 9.93-8.8 9.93-15.44 0-9.35-7.6-16.95-16.95-16.95s-16.95 7.6-16.95 16.95c0 4.42-3.58 7.99-7.99 7.99s-7.99-3.58-7.99-7.99c0-18.16 14.78-32.94 32.94-32.94 18.15.01 32.93 14.79 32.93 32.95zm-24.95 73.64v.08c0 4.42-3.58 7.99-7.99 7.99s-7.99-3.58-7.99-7.99 3.58-8.04 7.99-8.04 7.99 3.55 7.99 7.96z"/></svg>