<svg id="Layer_1" enable-background="new 0 0 512 512" viewBox="0 0 512 512" xmlns="http://www.w3.org/2000/svg"><path d="m329.05 364.87h60.63v-11.48h-60.63zm67.63 14h-74.64c-3.86 0-7-3.12-7-7v-25.48c0-3.86 3.15-7 7-7h74.64c3.86 0 7 3.15 7 7v25.48c0 3.88-3.14 7-7 7zm-115.57-94.08h156.5c7.85 0 14.29 6.46 14.29 14.29v15.79c0 7.31-5.56 13.41-12.73 14.17v107.38h36.96c3.86 0 7 3.12 7 7v38.72c0 3.85-3.15 7-7 7h-442.82c-3.85 0-7-3.15-7-7v-38.72c0-3.88 3.15-7 7-7h65.68c-11.88-14.49-18.03-42.09-19.64-66.93-1.76-27.67 1.42-66.3 12.67-84.42 1.47-2.41 3.12-4.54 4.9-6.35 2.32-4.42 6.04-8.14 10.89-10.35 2.69-1.22 5.53-1.87 8.33-2.04-13.86-28.32 6.77-61.82 38.64-61.82 23.73 0 42.97 19.25 42.97 42.97 0 28.35-26.96 48.84-54.14 41.53 6.55 10.23 18.88 26.16 28.15 33.87l3.74-5.41c11.74-17.01 37.5-13.01 44.22 5.78h.03l.77 2.15h4.79c20.52 0 30.87 24.92 16.33 39.46-1.62 1.62-3.51 3-5.56 4.11l17.06 47.76c2.38 6.69 1.76 13.75-1.22 19.67h27.64v-107.36c-7.14-.77-12.73-6.92-12.73-14.17v-15.79c0-7.88 6.4-14.29 14.28-14.29zm144.06 44.33h-131.61v107.29h131.61zm12.44-30.33h-156.5l-.28.28.09 15.99 156.7.06.28-.26-.06-15.99c-.06-.05-.14-.08-.23-.08zm-151.03 151.63h-153.63c-2.35.2-4.71.2-7.03 0h-85.61v24.72h428.83v-24.72zm60.35-255.12h38.21c7.71 0 13.97 6.29 13.97 13.97v38.24c0 7.68-6.29 13.97-13.97 13.97h-38.21c-7.68 0-13.97-6.32-13.97-13.97v-38.24c0-3.77 1.59-7.37 4.11-9.84l-.03-.03c2.55-2.51 6.04-4.1 9.89-4.1zm38.19 14h-38.15v38.18h38.15zm-130.4-14h38.21c7.71 0 13.97 6.29 13.97 13.97v38.24c0 7.68-6.29 13.97-13.97 13.97h-38.21c-7.68 0-13.97-6.32-13.97-13.97v-38.24c0-3.77 1.56-7.37 4.11-9.84l-.03-.03c2.52-2.51 6.04-4.1 9.89-4.1zm38.19 14h-38.18v38.18h38.18zm-166.57 227.12h6.18c4.82-.28 11.03-3.09 15-6.41 11.14-9.3 19.79-26.08 26.99-40.03 3.66-7.11 6.97-13.55 10.29-18.43h-14.83c-4.82 0-8.25-1.28-12.44-3.49l-20.41 29.59c-2.18 3.17-6.55 3.97-9.69 1.79-3.17-2.18-3.97-6.55-1.79-9.72l18.99-27.52c.4-.71.77-1.39 1.08-2.01-17.72-13.89-36.94-37.67-46.72-55.9-9.38 31.52-9.3 94.08 9.58 121.66 4.19 6.1 10.63 9.64 17.77 10.47zm34.75 0h45.92l-1.28-3.12-16.3-41.81c-7.78 14.91-16.12 32.45-28.34 44.93zm273.29-364.77h-86.43v22.51l86.43 60.01zm-100.4-7v-32.51c0-3.85 3.12-7 7-7h100.4c3.85 0 6.97 3.15 6.97 7v131.73l16.95 11.79c19.84 13.72 13.12 44.59-10.49 48.9-6.83 1.28-14.12-.09-20.27-4.34l-179.82-124.84-179.83 124.84c-12.27 8.5-29.17 5.41-37.67-6.89-8.5-12.33-5.41-29.17 6.89-37.67l194.51-135.05c9.35-6.77 21.85-7.14 31.49-.48l63.86 44.33v-19.81zm13.97-6.97h86.43v-18.54h-86.43zm94.54 151.06c9.61 6.63 22.45-1.76 20.35-13.18-.6-3.29-2.47-6.38-5.44-8.42l-19.53-13.58c-.34-.17-.65-.4-.94-.62l-99.47-69.08c-.34-.17-.65-.4-.94-.62l-74.35-51.62c-4.62-3.2-10.66-3.09-15.17.17-.14.11-.28.2-.45.31l-194.5 135.04c-9.61 6.63-6.35 21.6 5.1 23.7 3.29.62 6.83-.06 9.81-2.1l183.8-127.59c2.49-1.73 5.73-1.62 8.05.08zm-267.22 18.28c-18.23-18.23-49.49-5.27-49.49 20.47 0 25.77 31.27 38.72 49.49 20.49 11.31-11.31 11.31-29.65 0-40.96zm11.68 98.39h18.28c-4.39-6.38-13.89-6.41-18.28 0zm35.17 46.18h-25.6c.26.37.45.79.65 1.25l21.54 55.39c.11.23.2.45.28.68 3.37 9.41 16.33 9.86 20.52 1.05 1.22-2.58 1.45-5.61.43-8.5zm-113.3-85.38c-.82 2.15-.79 4.68.26 6.97 4.96 10.91 15.36 25.85 27.1 38.83 6.43 7.09 16.38 16.67 22.79 20.66 3.29 2.04 7.26 4.93 11 4.93l55.33.03c8.11 0 12.16-9.84 6.43-15.56-1.64-1.64-3.91-2.66-6.43-2.66h-51.87c-6.49 0-19.08-13.46-26.16-22-9.35-11.23-18.17-24.26-21.6-31.78-3.47-7.56-14.1-6.79-16.85.58z"/></svg>